<?xml version="1.0" encoding="utf-8"?>
<!-- Generator: Adobe Illustrator 16.0.5, SVG Export Plug-In . SVG Version: 6.00 Build 0)  -->
<!DOCTYPE svg PUBLIC "-//W3C//DTD SVG 1.1//EN" "http://www.w3.org/Graphics/SVG/1.1/DTD/svg11.dtd">
<svg version="1.1" id="Layer_1" xmlns="http://www.w3.org/2000/svg" xmlns:xlink="http://www.w3.org/1999/xlink" x="0px" y="0px"
	 width="298px" height="195px" viewBox="0 0 298 195" enable-background="new 0 0 298 195" xml:space="preserve">
<polygon fill="#EAE7DD" points="195.146,86.085 74.953,86.085 74.953,82.037 74.953,51.289 8.83,117.386 74.953,183.495 
	74.953,148.68 195.146,148.68 "/>
<polygon fill="#D1C9C0" points="195.143,84.379 105.201,84.379 105.201,92.438 105.201,115.599 195.143,115.599 "/>
<polygon fill="#6F84B8" points="223.036,42.597 223.036,46.664 101.116,46.664 101.116,86.08 101.116,109.245 195.146,109.245 
	223.036,109.245 223.036,144.053 289.17,77.938 223.036,11.835 "/>
<polygon fill="#516899" points="101.201,78.027 101.201,86.086 101.201,109.246 195.239,109.246 223.129,109.246 223.129,144.053 
	289.17,78.027 "/>
</svg>
