<svg id="Vector" xmlns="http://www.w3.org/2000/svg" viewBox="0 0 512 512"><style>.st0{fill:#efefef}.st1{fill:#f8b514}.st2{fill:#1f2357}</style><path class="st0" d="M512 472c0 22.1-17.9 40-40 40H40c-22.1 0-40-17.9-40-40V40C0 17.9 17.9 0 40 0h432c22.1 0 40 17.9 40 40v432z"/><path class="st1" d="M145.4 214.4h124.9l-17.6 103h-37.8l9-47.7s-37.4 53.9-117.4 43.4-76.7-56.8-70.7-69.6c6-12.7 14.2-29.5 59.8-49 0 0-51.6 28-51.2 56.5.4 28 29.9 39.6 62.5 38.9s57.6-13.1 80.4-43.4h-46.4l4.5-32.1z"/><path class="st2" d="M330.8 259.3l-4.8 29.2c-27.5 7.1-24.7-16.8-23.9-22.1.7-5.2 4.9-23.6 25.8-27.7 20.9-4.1 32.2 6.1 32.2 6.1l4.9-27.1s-78.5-25.4-90.5 45.8c-12 71.2 74 45.8 74 45.8l8.8-49.1-26.5-.9zM374.6 213.4l-20.2 100.4h47.9l6.3-26.8h-22l15.3-73.6zM478.9 213.4l-5.6 25s-18.3-9.7-24.3 2.2c-6 12 23.9 12.7 23.6 36.6 0 0 5.6 43.6-62.1 36.6l6-26.5s2.1 3.9 12.6 3.6c10.5-.2 14.3-1.2 15.6-6.5 1.3-5.2-1.9-7.2-10.7-12.5-8.7-5.2-16.2-15.2-13.5-31.7s21-37.6 58.4-26.8z"/></svg>